<?xml version="1.0" encoding="UTF-8"?>
<svg version="1.1" xmlns="http://www.w3.org/2000/svg" xmlns:xlink="http://www.w3.org/1999/xlink" x="0px" y="0px"
	 width="24px" height="24px" viewBox="0 0 24 24">
<path class="st0" d="M0 0 C1.14130371 0.30550781 1.14130371 0.30550781 2.30566406 0.6171875 C18.86428574 5.18119722 34.68848415 13.11759288 48 24 C48.54994629 24.44601563 49.09989258 24.89203125 49.66650391 25.3515625 C71.85214649 43.45340123 87.23820433 65.38361913 95 93 C95.51240234 94.76923828 95.51240234 94.76923828 96.03515625 96.57421875 C103.85348882 129.62940157 96.56512679 165.39474518 79 194 C75.96573393 198.57969924 72.56564362 202.82646971 69 207 C68.56961426 207.50869629 68.13922852 208.01739258 67.69580078 208.54150391 C52.95985047 225.77988849 34.86987776 237.35492206 15 248 C21.5646491 264.48168879 28.20786313 280.92923189 34.921875 297.35058594 C35.27765625 298.22489258 35.6334375 299.09919922 36 300 C36.59554687 301.25345215 36.59554687 301.25345215 37.203125 302.53222656 C38 305 38 305 37 310 C31.39 310 25.78 310 20 310 C15.31293655 298.82020112 10.64503357 287.63271593 6.00726318 276.43237305 C5.35184976 274.84965865 4.69598959 273.26712916 4.03961182 271.68481445 C2.29637716 267.48068431 0.56419096 263.27236377 -1.14978027 259.05621338 C-1.6717542 257.77651581 -2.1973486 256.49828857 -2.72668457 255.22161865 C-3.46189432 253.44612049 -4.18245391 251.66457728 -4.90234375 249.8828125 C-5.30960693 248.88652832 -5.71687012 247.89024414 -6.13647461 246.86376953 C-7.09126592 243.69732845 -7.37659012 241.28686703 -7 238 C-1.65327673 233.76717741 4.76469938 231.09600108 10.86230469 228.08032227 C26.63319366 220.25519759 39.89186133 210.75168148 52 198 C51.34733154 198.14002441 50.69466309 198.28004883 50.0222168 198.42431641 C26.11145258 203.20773806 2.80464001 200.20041303 -17.76708984 186.85351562 C-20.9368453 184.68575253 -23.99698765 182.39223018 -27 180 C-27.99 182.97 -27.99 182.97 -29 186 C-31.90792671 186.48465445 -34.04898292 186.6506959 -36.55859375 184.93359375 C-41.70894257 179.59595952 -44.54962606 172.17770286 -46 165 C-45.10828172 160.70860575 -44.69585158 159.46390105 -41 157 C-37.8137207 156.86474609 -37.8137207 156.86474609 -33.92578125 157.0234375 C-33.2419487 157.04846344 -32.55811615 157.07348938 -31.8535614 157.09927368 C-29.67269371 157.18134725 -27.49274903 157.27798264 -25.3125 157.375 C-23.83271981 157.43325269 -22.35290191 157.4905557 -20.87304688 157.546875 C-17.24819578 157.6869055 -13.62403076 157.84000004 -10 158 C-9 161 -9 161 -9.6171875 163.54296875 C-11.37884618 166.6731476 -12.77453614 167.15272405 -16.125 168.3125 C-17.03507813 168.63863281 -17.94515625 168.96476563 -18.8828125 169.30078125 C-19.93082031 169.64689453 -19.93082031 169.64689453 -21 170 C-4.10672716 182.03324414 16.72284956 191.60918981 38.10498047 188.71508789 C40.19490902 188.33243533 42.24847596 187.87867987 44.3125 187.375 C45.04307617 187.19678711 45.77365234 187.01857422 46.52636719 186.83496094 C54.25962331 184.83129835 63.12008927 182.45562531 67.875 175.5625 C68.64009776 174.06941743 69.33998837 172.54241849 70 171 C70.50015625 169.86949219 71.0003125 168.73898438 71.515625 167.57421875 C83.83016927 138.77799308 82.13854379 109.89827345 70.93554688 81.17138672 C69.73928448 78.39488419 68.35203624 75.70407249 67 73 C54.13 72.505 54.13 72.505 41 72 C41 68.37 41 64.74 41 61 C49.415 60.505 49.415 60.505 58 60 C49.62094542 50.13133571 41.0667514 40.85692089 30 34 C28.94039062 33.34257813 27.88078125 32.68515625 26.7890625 32.0078125 C-1.35847159 15.03025311 -34.9185909 9.4621895 -67 17 C-83.92067513 21.36742567 -98.4851864 28.92509633 -112 40 C-112.86238281 40.69738281 -113.72476563 41.39476562 -114.61328125 42.11328125 C-134.68467598 59.18801362 -146.47272443 85.00211884 -149 111 C-151.38951583 144.35207815 -140.42363486 172.96336538 -118.625 198.1875 C-106.08912799 211.74272492 -90.39838217 220.0849914 -74 228 C-74.63125702 237.0370888 -76.5531546 245.66784233 -78.5625 254.47265625 C-78.91781448 256.04771214 -79.27270645 257.62286339 -79.62719727 259.19810486 C-80.36654357 262.47757391 -81.10992341 265.75609265 -81.85644531 269.03393555 C-82.81475345 273.24254132 -83.76438142 277.45304826 -84.71125793 281.66423893 C-85.44101195 284.90667444 -86.17446543 288.14826376 -86.90914917 291.38958549 C-87.26097708 292.9431733 -87.6118299 294.49698226 -87.96170044 296.05101204 C-88.448681 298.21072002 -88.94043152 300.36928434 -89.43359375 302.52758789 C-89.71259521 303.7565126 -89.99159668 304.98543732 -90.27905273 306.25160217 C-91 309 -91 309 -92 310 C-94.6773138 310.09981214 -97.32304175 310.13879875 -100 310.125 C-100.75023438 310.12886719 -101.50046875 310.13273437 -102.2734375 310.13671875 C-107.87338947 310.12661053 -107.87338947 310.12661053 -109 309 C-108.92399489 301.15619386 -106.8811585 293.49141153 -105.05859375 285.9140625 C-104.77146011 284.69472015 -104.48432648 283.47537781 -104.18849182 282.21908569 C-103.43172673 279.00734052 -102.67000281 275.79683448 -101.9050293 272.58703613 C-100.82346039 268.04811784 -99.74638667 263.50816535 -98.67579651 258.96664429 C-98.10710452 256.5549692 -97.53412206 254.14430094 -96.95640564 251.73477173 C-96.69936356 250.64618866 -96.44232147 249.55760559 -96.17749023 248.43603516 C-95.94956284 247.48024567 -95.72163544 246.52445618 -95.48680115 245.53970337 C-94.87450037 242.77624195 -94.87450037 242.77624195 -95 239 C-97.26232801 237.266916 -97.26232801 237.266916 -100.25 235.8125 C-110.94800434 229.90971878 -120.13038349 222.35587382 -129 214 C-129.66386719 213.40058594 -130.32773438 212.80117187 -131.01171875 212.18359375 C-146.69213349 197.45736246 -156.98270596 177.42261247 -163 157 C-163.21027832 156.31905273 -163.42055664 155.63810547 -163.63720703 154.93652344 C-173.00624273 123.49869819 -167.36887398 87.70807224 -152.04150391 59.23803711 C-147.98371959 52.03420505 -143.14285313 45.45756746 -138 39 C-137.49984375 38.34515625 -136.9996875 37.6903125 -136.484375 37.015625 C-132.08419994 31.502762 -126.54680393 27.30342641 -121 23 C-120.13246094 22.31679688 -119.26492187 21.63359375 -118.37109375 20.9296875 C-85.40506834 -4.126457 -39.63887412 -10.99101002 0 0 Z " fill="#000000" transform="translate(167,4)"/>
<path d="M0 0 C0.66 0.66 1.32 1.32 2 2 C1.9609375 4.921875 1.9609375 4.921875 1 8 C-6.6557241 14.11375846 -18.03498617 17.06495347 -27.0625 20.5 C-28.25214355 20.95793945 -29.44178711 21.41587891 -30.66748047 21.88769531 C-31.79943848 22.30631836 -32.93139648 22.72494141 -34.09765625 23.15625 C-35.11351807 23.53587891 -36.12937988 23.91550781 -37.17602539 24.30664062 C-40.27485363 25.06748373 -42.00313676 25.06630087 -45 24 C-47.1519437 20.77208445 -47.20086443 19.71599191 -47 16 C-39.59174237 12.03183384 -31.93851654 8.9123693 -24.07519531 5.97802734 C-22.10513717 5.24258501 -20.13834461 4.49888446 -18.171875 3.75390625 C-4.15907359 -1.52499365 -4.15907359 -1.52499365 0 0 Z " fill="#000000" transform="translate(200,68)"/>
</svg>