<svg version="1.1" xmlns="http://www.w3.org/2000/svg" xmlns:xlink="http://www.w3.org/1999/xlink"
       width="24px" height="24px">
<path d="m 85.322405,191.62448 c 0.101752,-0.25466 0.641341,-2.49496 1.199086,-4.97845 0.557745,-2.48348 1.189129,-5.22192 1.403079,-6.08541 1.316683,-5.31415 1.563047,-6.73482 1.236215,-7.12864 -0.180068,-0.21696 -0.473051,-0.39448 -0.651076,-0.39448 -0.178025,0 -1.618533,-0.85518 -3.201131,-1.90041 -12.53634,-8.27959 -18.191637,-23.18314 -14.188083,-37.39022 1.511092,-5.36228 5.173292,-11.37513 8.817379,-14.47696 0.635306,-0.54077 1.452757,-1.23854 1.816559,-1.5506 2.03372,-1.74444 5.95757,-3.95513 9.159603,-5.16048 10.156864,-3.82338 22.686914,-2.54096 31.800814,3.25476 5.60071,3.5616 9.99335,8.35819 12.8568,14.03911 3.15453,6.25839 4.01516,14.3546 2.29556,21.59503 -2.35143,9.90081 -9.30921,18.19993 -19.49248,23.25031 -1.9131,0.9488 -2.19951,1.17727 -2.05486,1.63919 0.0924,0.2952 1.23787,3.09657 2.54541,6.22527 2.73193,6.53702 3.89737,9.36459 3.89866,9.45885 5.3e-4,0.0364 -0.74486,0.0661 -1.65635,0.0661 h -1.65727 l -3.55123,-8.53281 c -1.95318,-4.69305 -3.5954,-8.77094 -3.64939,-9.06198 -0.0827,-0.44563 0.2597,-0.66876 2.16875,-1.41345 2.64692,-1.03252 7.0201,-3.59523 9.49293,-5.56292 2.2328,-1.7767 6.75387,-6.64967 6.16946,-6.64967 -0.0706,0 -0.70379,0.25244 -1.40707,0.56098 -2.42985,1.06599 -4.83897,1.54638 -7.7789,1.55115 -5.25088,0.009 -10.10047,-1.9184 -14.86637,-5.90693 -0.69202,-0.57914 -1.31867,-0.99255 -1.39254,-0.91868 -0.0739,0.0739 0.0459,0.56549 0.26604,1.09248 0.83485,1.99808 0.17617,2.77325 -0.99724,1.1736 -0.70768,-0.96474 -1.77741,-3.46931 -1.77741,-4.16146 0,-0.24909 0.2336,-0.66429 0.51911,-0.92267 0.47148,-0.42668 0.71581,-0.44103 2.66266,-0.15636 1.18044,0.1726 2.79142,0.23248 3.58549,0.13326 1.21202,-0.15142 1.41797,-0.11765 1.29154,0.21181 -0.22068,0.57509 -1.29315,0.98514 -3.05943,1.16975 -0.85788,0.0897 -1.55979,0.24429 -1.55979,0.34359 0,0.22549 3.67392,2.85165 5.34422,3.8201 2.78433,1.61438 7.89696,2.92301 11.20935,2.86913 2.29918,-0.0374 7.21945,-1.41386 8.11901,-2.27132 0.1818,-0.1733 0.63799,-0.51155 1.01374,-0.75168 0.37746,-0.24121 1.06711,-1.24029 1.54107,-2.23252 3.85927,-8.07932 3.86506,-16.99839 0.0163,-25.05995 l -1.09535,-2.29428 h -3.28457 -3.28457 v -0.66146 -0.66146 h 2.64583 c 1.81357,0 2.64584,-0.0955 2.64584,-0.30348 0,-0.81198 -4.02618,-5.12553 -6.66054,-7.13595 -4.13547,-3.15599 -8.75567,-5.20837 -14.24155,-6.32636 -4.05002,-0.82538 -10.029433,-0.66244 -14.155205,0.38572 -9.767245,2.48139 -17.529666,9.40174 -20.736297,18.48681 -2.201962,6.23862 -2.275914,13.36795 -0.20136,19.41223 2.732099,7.96006 8.334565,14.32635 15.928639,18.1003 l 2.69715,1.34038 -0.446313,2.03111 c -0.24547,1.11711 -1.273111,5.69175 -2.283648,10.16585 l -1.837338,8.13474 -1.681953,0.001 c -1.496193,0.001 -1.661521,-0.0499 -1.49695,-0.46182 z m 25.293925,-58.60521 c -0.12387,-0.32742 -0.20456,-0.61993 -0.17931,-0.65001 0.0252,-0.0301 2.53229,-1.01581 5.5712,-2.19049 4.22132,-1.63174 5.57685,-2.05592 5.74375,-1.79738 0.53933,0.83543 -0.0266,1.1726 -5.34035,3.18168 -2.9814,1.12724 -5.45433,2.04997 -5.4954,2.05052 -0.0411,5.3e-4 -0.17602,-0.2669 -0.29989,-0.59432 z"/>
</svg>