<svg version="1.1" xmlns="http://www.w3.org/2000/svg" xmlns:xlink="http://www.w3.org/1999/xlink" x="0px" y="0px"
	 width="24px" height="24px" viewBox="0 0 24 24">
<style type="text/css">
	.st0{fill:#515151;}
</style>
<path d="M1230 2980 c-316 -59 -598 -229 -763 -458 -167 -232 -245 -489 -233
-767 19 -449 241 -800 669 -1059 34 -21 34 -20 -19 -246 -19 -80 -48 -203 -64
-275 -17 -72 -28 -140 -25 -152 5 -21 11 -23 78 -23 l73 0 31 147 c18 82 55
248 83 371 27 123 50 231 50 240 0 12 -29 32 -87 61 -324 160 -546 438 -615
769 -26 128 -21 356 10 474 99 369 379 644 758 745 89 23 118 26 279 27 191 1
243 -7 390 -58 187 -65 319 -148 458 -288 54 -54 95 -103 92 -108 -3 -6 -42
-10 -85 -10 -76 0 -80 -1 -86 -24 -14 -58 -9 -61 117 -64 137 -3 132 0 182
-122 107 -261 108 -511 5 -780 -55 -142 -117 -187 -312 -226 -84 -16 -93 -16
-189 1 -134 23 -236 61 -336 125 -84 54 -102 80 -53 80 42 0 94 36 90 63 -3
21 -8 22 -138 28 -141 7 -160 3 -185 -35 -13 -20 -13 -28 1 -70 9 -27 28 -68
42 -93 40 -72 98 -85 104 -23 l3 31 55 -42 c68 -51 213 -122 300 -145 87 -23
282 -24 365 -1 32 9 62 14 65 11 8 -9 -150 -156 -215 -201 -82 -55 -208 -125
-278 -153 -31 -13 -65 -32 -74 -43 -21 -23 -27 -7 134 -399 l118 -288 75 2 75
3 -1 30 c-1 17 -47 139 -103 273 -56 133 -104 255 -107 270 -5 25 0 30 80 70
291 148 534 412 641 697 86 227 97 518 29 752 -57 196 -153 354 -313 514 -201
201 -401 307 -689 364 -152 31 -335 32 -482 5z"/>
<path d="M2075 2343 c-11 -3 -100 -36 -197 -75 -172 -67 -178 -70 -178 -97 0
-56 22 -59 129 -21 156 55 281 107 302 126 22 20 25 44 7 62 -12 12 -28 13
-63 5z"/>
</g>
</svg>
